<svg width="40" height="40" viewBox="0 0 40 40" fill="none" xmlns="http://www.w3.org/2000/svg">
    <rect width="40" height="40" rx="20" fill="#262833" />
    <path
        d="M28.0822 27.1752C27.8786 27.1752 27.6741 27.1058 27.5067 26.9637C27.1299 26.6442 27.0822 26.0777 27.4002 25.699L32.533 19.5878L27.4005 13.4765C27.0825 13.0978 27.1302 12.5317 27.5071 12.2118C27.8839 11.8919 28.4472 11.9398 28.7655 12.3185L34.3844 19.0088C34.6652 19.3432 34.6652 19.8323 34.3844 20.1664L28.7652 26.8563C28.5886 27.0668 28.3364 27.1752 28.0822 27.1752Z"
        fill="#67F0AB" />
    <path
        d="M11.5125 27.1749C11.2586 27.1749 11.0064 27.0666 10.8298 26.8564L5.21062 20.1665C4.92979 19.832 4.92979 19.3429 5.21062 19.0088L10.8298 12.3186C11.1478 11.9399 11.7114 11.892 12.0882 12.2115C12.4651 12.5311 12.5128 13.0975 12.1948 13.4762L7.06131 19.5878L12.1941 25.6988C12.5121 26.0775 12.4648 26.6436 12.0879 26.9634C11.9202 27.1052 11.7157 27.1749 11.5125 27.1749Z"
        fill="#67F0AB" />
    <path
        d="M15.6295 27.1753C15.4677 27.1753 15.3039 27.131 15.1566 27.0385C14.7387 26.7754 14.6117 26.2219 14.8735 25.8019L23.2075 12.4217C23.4693 12.0017 24.0204 11.8745 24.4384 12.1372C24.8563 12.4003 24.9833 12.9538 24.7215 13.3738L16.3875 26.754C16.2181 27.0259 15.9271 27.1753 15.6295 27.1753Z"
        fill="#67F0AB" />
</svg>